<?xml version="1.0" encoding="utf-8"?>
<!-- Generator: Adobe Illustrator 24.0.2, SVG Export Plug-In . SVG Version: 6.00 Build 0)  -->
<svg version="1.1" id="Layer_1" xmlns="http://www.w3.org/2000/svg" xmlns:xlink="http://www.w3.org/1999/xlink" x="0px" y="0px"
	 viewBox="0 0 932.6 345.8" style="enable-background:new 0 0 932.6 345.8;" xml:space="preserve">
<style type="text/css">
	.st0{fill:#FFFFFF;}
	.st1{fill:#97E8FC;}
</style>
<g>
	<g>
		<path class="st0" d="M125.9,334c-2.3,0-4.4-1.9-6.2-5.7L49.7,164L31.1,337.1c0,4.5-2.3,6.8-7,6.8H7.5c-4.9,0-7.3-2.3-7.3-6.8
			L25.3,121c0-2.1,0.8-3.7,2.4-5c1.6-1.2,3.3-1.9,5.3-1.9h24.6c3.4,0,5.7,1.9,7,5.7L133.8,284l69.8-164.2c0.5-1.9,1.4-3.3,2.6-4.3
			c1.2-1,2.5-1.5,4-1.5h25.3c2.2,0,4,0.7,5.2,2c1.2,1.3,1.8,2.9,1.8,4.8l25.2,216.1c0,4.5-2.3,6.8-7,6.8h-16.6
			c-4.9,0-7.3-2.3-7.3-6.8L218.1,164l-70.3,164.3c-1.8,3.8-3.9,5.7-6.4,5.7H125.9z"/>
	</g>
</g>
<g>
	<g>
		<path class="st0" d="M699.3,249c0-4.4,2.3-6.6,6.8-6.6h16c1.9,0,3.5,0.6,5,1.7c1.4,1.2,2.2,2.8,2.2,4.9v67.3
			c0,1.2-0.3,2.3-0.8,3.4c-0.5,1.1-1.4,1.9-2.6,2.6l-1.2,0.9c-9.7,6.8-20.5,12.1-32.2,15.7c-11.7,3.7-24.4,5.5-37.9,5.5
			c-11,0-21.5-1.4-31.6-4.1c-10.1-2.7-19.5-6.6-28.3-11.6c-8.8-5-16.7-11-23.9-18c-7.2-7-13.4-14.7-18.5-23.2
			c-5.1-8.5-9.1-17.6-11.9-27.4c-2.8-9.8-4.2-20-4.2-30.6c0-10.5,1.4-20.7,4.2-30.4c2.8-9.7,6.8-18.9,12-27.4
			c5.2-8.5,11.4-16.3,18.6-23.3c7.2-7,15.2-13,23.9-18.1c8.8-5,18.2-8.9,28.3-11.7c10.1-2.8,20.6-4.1,31.6-4.1
			c12.7,0,25,1.9,36.8,5.6c11.8,3.8,22.8,9.2,33.1,16.2c1.1,0.8,2.1,1.7,2.8,2.8c0.7,1.1,1.1,2.1,1.1,3.2c0,1.4-0.4,2.6-1.2,3.6
			l-8.2,13.2c-1.8,2.4-3.6,3.6-5.4,3.6c-0.7,0-1.5-0.2-2.4-0.5c-0.9-0.4-1.9-0.9-3-1.7c-7.5-5.1-15.6-9.2-24.3-12.1
			c-8.8-3-18.1-4.4-28.1-4.4c-12.8,0-24.7,2.4-35.7,7.1c-10.9,4.7-20.4,11-28.4,19c-8,7.9-14.3,17.1-18.9,27.4
			c-4.6,10.3-6.8,21.1-6.8,32.3c0,11.9,2.3,23.1,7,33.5c4.7,10.4,11,19.4,19,27.1c8,7.7,17.3,13.7,27.9,18.1
			c10.6,4.4,21.9,6.6,34,6.6c7.6,0,15.1-1.2,22.6-3.5c7.5-2.4,15.2-5.1,22.9-8.4V249z"/>
	</g>
</g>
<g>
	<g>
		<path class="st0" d="M900.7,165.3c-1.4-0.9-3.8-2.7-7-5.3c-3.2-2.6-7.2-5.3-11.9-8.1c-4.7-2.7-10-5.2-15.9-7.4
			c-5.9-2.2-12.2-3.3-19-3.3c-8,0-14.9,1-20.7,2.9c-5.8,1.9-10.5,4.5-14.3,7.7c-3.8,3.2-6.5,6.8-8.3,10.8c-1.8,4-2.7,8-2.7,12.1
			c0,5.7,1.9,10.4,5.6,14.3c3.7,3.9,8.7,7.2,14.9,10c6.2,2.8,13.2,5.4,21.1,7.7c7.9,2.3,15.9,4.7,24,7.2c8.2,2.5,16.2,5.4,24,8.5
			c7.9,3.1,14.9,7,21.1,11.7c6.2,4.7,11.1,10.2,14.9,16.7c3.7,6.5,5.6,14.3,5.6,23.6c0,10.6-2.2,20.3-6.6,29s-10.4,16.1-18.1,22.2
			c-7.7,6.1-16.6,10.9-27,14.2s-21.4,5-33.3,5c-7.9,0-15.7-0.9-23.5-2.7c-7.8-1.8-15.2-4.4-22.3-7.8c-7.1-3.4-13.8-7.5-20-12.4
			c-6.2-4.9-11.7-10.4-16.6-16.7c-1.3-1.6-2-3.2-1.9-4.9c0-1.6,0.9-3.1,2.7-4.6l12-10c1.7-1.4,3.4-2.1,5-1.9c1.6,0.2,3.1,1,4.4,2.7
			l2,2c4.3,4.8,9.1,8.9,14.5,12.4c5.4,3.5,10.8,6.4,16.3,8.7c5.4,2.3,10.6,4,15.6,5.1c5,1.1,9.2,1.7,12.6,1.7c6.2,0,12.5-0.8,19-2.4
			c6.5-1.6,12.4-4.1,17.8-7.5c5.4-3.3,9.8-7.6,13.2-12.7c3.4-5.1,5.2-11.1,5.2-18c0-5.8-1.7-10.7-5.1-14.7c-3.4-4-8-7.5-13.8-10.5
			c-5.8-3-12.5-5.7-20.3-8.1c-7.8-2.4-16-4.9-24.9-7.5c-12.2-3.5-22.6-7.3-31.3-11.2c-8.7-3.9-15.9-8.2-21.5-12.9
			c-5.6-4.7-9.8-10-12.4-15.8c-2.6-5.8-4-12.4-4-19.7c0-9.2,1.8-17.7,5.5-25.3c3.7-7.7,8.9-14.3,15.7-19.8c6.8-5.6,15-9.9,24.6-13
			c9.6-3.1,20.3-4.6,32.2-4.6c6.4,0,13,0.8,19.9,2.4c6.9,1.6,13.6,3.9,20.1,6.8c6.5,2.9,12.7,6.3,18.4,10.3
			c5.7,4,10.7,8.4,14.8,13.3c1.4,1.5,2.2,3.1,2.2,4.8c0,1.7-0.7,3.3-2.4,4.8l-10.8,10.3c-1.6,1.5-3.3,2.2-4.9,2.1
			C903.7,167.5,902.1,166.7,900.7,165.3z"/>
	</g>
</g>
<g>
	<path class="st1" d="M380.5,345.8c-9.9,0-20.1-1.5-31.7-8.6c-13.7-8.3-18.3-17.2-20-20.5l-0.2-0.4c-3.3-5.8-6.6-15.2-8.4-21.5
		l-0.1-0.4c-6.3-24.2-12.4-48.8-18.4-72.6c-6-23.8-12.2-48.3-18.4-72.5c-1.9-7.2,2.5-14.6,9.7-16.4c7.2-1.9,14.6,2.5,16.4,9.7
		c6.3,24.2,12.5,48.8,18.4,72.6c6,23.7,12.1,48.2,18.3,72.2c1.8,6,4.3,12.7,6,15.6c0.2,0.3,0.4,0.7,0.6,1.2c1,1.9,2.9,5.5,10.1,9.9
		c8.1,4.9,14.5,5,24.1,4.5c10.6-0.6,13.1-0.7,35.6-6c20.7-4.9,28.2-8.1,43.1-14.4l0.9-0.4c3.5-1.5,6.7-3.8,9.9-7
		c5.7-5.7,7.9-12,8.5-13.7c2.3-7.4,1.4-14.2,0.2-18.5l-0.1-0.3l-36.6-150c-1.8-7.2,2.7-14.5,9.9-16.3c7.2-1.8,14.5,2.7,16.3,9.9
		l36.6,149.8c2.1,7.8,3.7,19.8-0.5,33.3c-1.3,4.2-5.3,15-15.1,24.9c-5.6,5.6-11.8,9.9-18.4,12.7l-0.9,0.4
		c-15.3,6.5-24.5,10.5-47.5,15.9c-23.8,5.6-28,6-40.2,6.7C385.7,345.7,383.1,345.8,380.5,345.8z"/>
</g>
<g>
	<path class="st1" d="M293.7,117.5c-0.4,0-0.7,0-1.1-0.1c-3.2-0.6-5.3-3.7-4.7-6.9c1-5.5,1.4-10.3,1.7-14.6c0.1-1.7,0.2-3.2,0.4-4.7
		c0.6-5.6-0.2-7.1-0.5-7.4c-0.3-0.4-0.8-0.7-1.4-1.2c-1.6-1.2-3.7-2.7-5.4-5.8c-0.7-1.3-1.2-2.6-1.6-4l0-0.2
		c-0.9-4.4-2.1-9-3.2-13.4c-1.2-4.5-2.4-9.2-3.4-13.9l-1.2-5.5L428.4,0.9l9.1,33.1c0.3,0.8,0.9,3,0.4,5.8c-0.3,1.7-0.9,3.4-2,4.9
		l-0.7,1l-1,0.7c-0.7,0.5-1.2,0.9-1.3,1.4c-0.2,0.5-0.2,2,2.5,5.9c1.4,1.9,2.9,4.1,4.5,6.3c2.4,3.5,5.2,7.4,8.5,11.8
		c1.9,2.6,1.4,6.3-1.2,8.2c-2.6,1.9-6.3,1.4-8.2-1.2c-3.4-4.6-6.2-8.6-8.7-12.2c-1.5-2.2-3-4.3-4.3-6.1c-2.8-3.9-6.4-9.8-4.2-16.4
		c0.8-2.5,2.4-4.6,4.5-6.4c0-0.1,0-0.2-0.1-0.3l-0.1-0.2l-6-22L287.2,48.4c0.6,2.6,1.3,5.3,2,7.9c1.2,4.5,2.4,9.1,3.3,13.8
		c0.1,0.3,0.2,0.7,0.4,1.1c0.4,0.8,0.9,1.2,2.1,2.1c0.9,0.7,2,1.5,3.1,2.7c4.7,5.1,3.9,13.1,3.5,16.6c-0.1,1.3-0.2,2.8-0.4,4.4
		c-0.3,4.4-0.7,9.8-1.9,15.9C298.9,115.5,296.4,117.5,293.7,117.5z"/>
</g>
<g>
	<path class="st1" d="M295.3,85.5c-2.6,0-5-1.7-5.7-4.4c-0.8-3.1,1-6.3,4.2-7.2c20.6-5.5,43-11.4,65.3-17.3
		c22.4-5.9,44.9-11.9,65.6-17.4c3.1-0.8,6.3,1,7.2,4.2c0.8,3.1-1,6.3-4.2,7.2C407,56.1,384.6,62,362.1,68
		c-22.4,5.9-44.7,11.8-65.3,17.3C296.3,85.4,295.8,85.5,295.3,85.5z"/>
</g>
</svg>
