<?xml version="1.0" encoding="utf-8"?>
<!-- Generator: Adobe Illustrator 24.0.2, SVG Export Plug-In . SVG Version: 6.00 Build 0)  -->
<svg version="1.1" xmlns="http://www.w3.org/2000/svg" xmlns:xlink="http://www.w3.org/1999/xlink" x="0px" y="0px"
	 viewBox="0 0 32 32" style="enable-background:new 0 0 32 32;" xml:space="preserve">
<style type="text/css">
	.st0{fill:#2F4499;}
	.st1{fill:none;stroke:#2F4499;stroke-width:0.9427;stroke-miterlimit:10;}
</style>
<g id="Layer_3">
	<path class="st0" d="M24.5,5.4C9.3,28.1,8.4,29.3,8.4,29.3l1.7,1.4l3,0.7h6.1h3.4l2.7-2.1l0.9-2V13.5l-0.3-5.3L25.3,7L24.5,5.4z"/>
</g>
<g id="Layer_1">
	<path class="st1" d="M9.3,0.5c0.3,0,6.4,0,14.9,0c0.1,0,0.4,0.1,0.6,0.4c0.1,0.1,0.1,0.2,0.1,0.3c0,0.7,0,1.4,0,2.1
		c0,0.2,0,0.4-0.1,0.5c-0.1,0.1-0.3,0.1-0.3,0.1c-5.1,0-10.2,0-15.3,0c0,0-0.2-0.1-0.3-0.2c-0.1-0.2-0.1-0.3,0-0.3
		c0-0.8,0-1.6,0-2.5c0-0.1,0.1-0.2,0.1-0.2C9.1,0.5,9.3,0.5,9.3,0.5z"/>
</g>
<g id="Layer_2">
	<path class="st1" d="M9.4,5.4c8.4,0,14.4,0,14.8,0c0,0,0.3,0,0.4,0.1c0.1,0.1,0.1,0.3,0.2,0.3c0.2,0.7,1,1.5,1.3,3.1
		c0.1,0.3,0.1,0.6,0.1,1c0.1,2.4,0,15.2,0,16.8c0,0.4,0,1.3-0.4,2.1c-0.7,1.3-1.7,1.9-2.2,2.1c-1.1,0.6-2.7,0.5-5.5,0.6
		c-0.4,0-2,0.1-4.2-0.1c-1.5-0.1-2.3-0.1-3.2-0.5c-0.6-0.3-1.2-0.5-1.7-1.1c-0.8-0.9-1-2-1.1-2.3c0-0.2,0-0.4,0-0.6
		c0-5.8-0.1-11-0.1-16.7c0-0.6,0.1-1.4,0.1-1.7c0-0.1,0.3-1.3,0.8-2.1C8.7,6.2,8.8,6,8.9,5.8C9,5.6,9,5.6,9.1,5.5
		C9.2,5.4,9.3,5.4,9.4,5.4z"/>
</g>
</svg>
